<?xml version="1.0" encoding="iso-8859-1"?>
<!-- Generator: Adobe Illustrator 16.0.0, SVG Export Plug-In . SVG Version: 6.00 Build 0)  -->
<!DOCTYPE svg PUBLIC "-//W3C//DTD SVG 1.1//EN" "http://www.w3.org/Graphics/SVG/1.1/DTD/svg11.dtd">
<svg version="1.1" id="Capa_1" xmlns="http://www.w3.org/2000/svg" xmlns:xlink="http://www.w3.org/1999/xlink" x="0px" y="0px"
	 width="60.943px" height="60.943px" viewBox="0 0 60.943 60.943" style="enable-background:new 0 0 60.943 60.943;"
	 xml:space="preserve">
<g>
	<g id="_x32_0">
		<g>
			<path d="M30.472,0C18.763,0,9.236,9.542,9.236,21.271c0,3.916,1.073,7.746,3.003,10.872c0.037,0.099,0.136,0.354,13.788,25.605
				c1.116,2.061,2.688,3.195,4.428,3.195c1.739,0,3.31-1.135,4.427-3.195C47.75,33.961,48.518,32.5,48.512,32.5
				c2.092-3.366,3.195-7.248,3.195-11.229C51.709,9.542,42.182,0,30.472,0z M46.358,31.316c-0.283,0.562-9.044,16.768-13.638,25.259
				c-1.312,2.423-3.221,2.423-4.533,0c-3.694-6.832-13.353-24.716-13.752-25.515c-1.793-2.94-2.741-6.326-2.741-9.79
				c0-10.37,8.424-18.809,18.778-18.809S49.25,10.9,49.25,21.271C49.252,24.795,48.271,28.23,46.358,31.316z M30.472,10.547
				c-6.484,0-11.76,5.283-11.76,11.779c0,6.495,5.275,11.779,11.76,11.779s11.759-5.285,11.759-11.779
				C42.231,15.83,36.957,10.547,30.472,10.547z M30.472,31.645c-5.128,0-9.302-4.182-9.302-9.317c0-5.138,4.174-9.318,9.302-9.318
				c5.129,0,9.302,4.181,9.302,9.318C39.774,27.463,35.602,31.645,30.472,31.645z"/>
		</g>
	</g>
</g>
<g>
</g>
<g>
</g>
<g>
</g>
<g>
</g>
<g>
</g>
<g>
</g>
<g>
</g>
<g>
</g>
<g>
</g>
<g>
</g>
<g>
</g>
<g>
</g>
<g>
</g>
<g>
</g>
<g>
</g>
</svg>
